<?xml version="1.0" encoding="UTF-8" standalone="no"?>
<svg xmlns="http://www.w3.org/2000/svg" xmlns:xlink="http://www.w3.org/1999/xlink" version="1.1" width="952.97261" height="952.93804" viewBox="9.05017 -120.06962 952.97261 952.93804"><g fill-rule="nonzero" stroke-width="none" stroke-linecap="none" stroke-linejoin="none" stroke-miterlimit="10" font-family="none" font-weight="none" font-size="none"><path d="M78.66736,353.737c0,-221.40039 179.48047,-400.88086 400.88086,-400.88086c221.40039,0 400.88086,179.48047 400.88086,400.88086c0,221.40039 -179.48047,400.88086 -400.88086,400.88086c-221.40039,0 -400.88086,-179.48047 -400.88086,-400.88086z" id="Path-1" fill-opacity="0" fill="currentColor" stroke="currentColor" stroke-width="25" stroke-linecap="round" stroke-linejoin="round"/><path d="M147.81384,352.73572c0,-181.58013 147.19978,-328.77991 328.77991,-328.77991c181.58013,0 328.77991,147.19978 328.77991,328.77991c0,181.58013 -147.19978,328.77991 -328.77991,328.77991c-181.58013,0 -328.77991,-147.19978 -328.77991,-328.77991z" id="Path-1-1" fill-opacity="0" fill="currentColor" stroke="#000d4a" stroke-width="20" stroke-linecap="round" stroke-linejoin="round"/><text x="450.616" y="-84.06962" id="PointText-1" fill="currentColor" stroke="none" stroke-width="1" stroke-linecap="butt" stroke-linejoin="miter" font-family="font-AlexBrush-Regular-OTF" font-weight="normal" font-size="40" text-anchor="start">N</text><text x="-406.49506" y="-542.06773" transform="rotate(-180) scale(1.22479,1.44078) skewX(0)" id="PointText-1-1" fill="currentColor" stroke="none" stroke-width="1" stroke-linecap="butt" stroke-linejoin="miter" font-family="font-AlexBrush-Regular-OTF" font-weight="normal" font-size="40" text-anchor="start">S</text><text x="329.04793" y="-918.6447" transform="rotate(90.43431)" id="PointText-1-2" fill="currentColor" stroke="none" stroke-width="1" stroke-linecap="butt" stroke-linejoin="miter" font-family="font-AlexBrush-Regular-OTF" font-weight="normal" font-size="51" text-anchor="start">E</text><text x="-376.43698" y="45.05017" transform="rotate(-90)" id="PointText-1-3" fill="currentColor" stroke="none" stroke-width="1" stroke-linecap="butt" stroke-linejoin="miter" font-family="font-AlexBrush-Regular-OTF" font-weight="normal" font-size="40" text-anchor="start">W</text><path d="M455.10128,365.91313c0,-12.19824 9.88863,-22.08687 22.08687,-22.08687c12.19824,0 22.08687,9.88863 22.08687,22.08687c0,12.19824 -9.88863,22.08687 -22.08687,22.08687c-12.19824,0 -22.08687,-9.88863 -22.08687,-22.08687z" id="Path-1-2" fill-opacity="0" fill="currentColor" stroke="currentColor" stroke-width="1" stroke-linecap="round" stroke-linejoin="round"/><path d="M476.60494,-38.71783l-21.97684,404.80266" id="Path-1-3" fill-opacity="0" fill="currentColor" stroke="currentColor" stroke-width="1" stroke-linecap="round" stroke-linejoin="round"/><path d="M78.51387,366.56622l403.75411,22.71421" id="Path-1-4" fill-opacity="0" fill="currentColor" stroke="currentColor" stroke-width="1" stroke-linecap="round" stroke-linejoin="round"/><path d="M475.89374,388.92183l-19.95176,-1.12244l-307.65686,-17.30801l-68.74682,-4.3087h68.54552h306.54428c1.09006,10.73149 10.39705,22.13697 21.26564,22.73915z" id="Path-1-5" fill="currentColor" stroke="currentColor" stroke-width="1" stroke-linecap="round" stroke-linejoin="round"/><path d="M477.48329,-30.11011l-0.25053,54.06653l-1.48098,319.60841c-1.14017,0.07219 -2.23746,0.53704 -3.32415,0.77576c-9.53308,2.09417 -16.75852,10.34641 -17.29443,20.37481l0.66765,-20.23212l17.40059,-320.51033l3.4035,-62.69078" id="Path-1-6" fill="currentColor" stroke="currentColor" stroke-width="1" stroke-linecap="round" stroke-linejoin="round"/><path d="M499.22348,369.02337l-22.80049,394.281" id="Path-1-7" fill-opacity="0" fill="currentColor" stroke="currentColor" stroke-width="1" stroke-linecap="round" stroke-linejoin="round"/><path d="M478.83777,343.84437l398.6226,22.01643" id="Path-1-8" fill-opacity="0" fill="currentColor" stroke="currentColor" stroke-width="1" stroke-linecap="round" stroke-linejoin="round"/><path d="M477.18815,388c11.15043,0 20.53354,-8.24002 22.03533,-18.97663l-1.08009,18.67769l-16.98893,293.78359l-4.22866,73.12482M475.62635,749.54514v-68.02951v-292.26509" id="CompoundPath-1" fill="currentColor" stroke="currentColor" stroke-width="1" stroke-linecap="butt" stroke-linejoin="miter"/><path d="M499.27475,366.94426h305.36969h56.8202M498.95828,362.16493c-1.68979,-9.88493 -9.94526,-17.57072 -20.12051,-18.32056l19.17554,1.05909l307.23585,16.96902l72.21121,3.98832" id="CompoundPath-1-1" fill="currentColor" stroke="currentColor" stroke-width="1" stroke-linecap="butt" stroke-linejoin="miter"/><path d="M477.28667,-33.70164l21.9238,400.4732" id="Path-178755-1" fill-opacity="0" fill="currentColor" stroke="currentColor" stroke-width="1" stroke-linecap="round" stroke-linejoin="round"/><path d="M477.81468,388.86245l398.69319,-22.77762" id="Path-182193-1" fill-opacity="0" fill="currentColor" stroke="currentColor" stroke-width="1" stroke-linecap="round" stroke-linejoin="round"/><path d="M454.87582,368.20632l21.4814,394.77024" id="Path-184842-1" fill-opacity="0" fill="currentColor" stroke="currentColor" stroke-width="1" stroke-linecap="round" stroke-linejoin="round"/><path d="M472.25721,343.56483l-388.74788,21.69657" id="Path-193920-1" fill-opacity="0" fill="currentColor" stroke="currentColor" stroke-width="1" stroke-linecap="round" stroke-linejoin="round"/><path d="M455.94198,387.79939l15.98078,293.68374" id="Path-1-9" fill="#ffffff" stroke="currentColor" stroke-width="1" stroke-linecap="round" stroke-linejoin="round"/><path d="M309.08084,365.6293c0,-93.34273 75.66923,-169.01197 169.01196,-169.01197c93.34273,0 169.01197,75.66924 169.01197,169.01197c0,93.34273 -75.66924,169.01196 -169.01197,169.01196c-93.34273,0 -169.01196,-75.66923 -169.01196,-169.01196z" id="Path-1-10" fill-opacity="0" fill="currentColor" stroke="currentColor" stroke-width="3" stroke-linecap="round" stroke-linejoin="round"/><path d="M455.80085,344.48328l-34.93532,1.94979l-60.63707,-96.9775l97.47459,59.9901z" id="Path-1-11" fill="#000d4a" stroke="currentColor" stroke-width="1" stroke-linecap="butt" stroke-linejoin="miter"/><path d="M498.31342,344.52738l36.39518,1.90569l60.63707,-96.9775l-98.86818,60.1229z" id="Path-390404-1" fill="#000d4a" stroke="currentColor" stroke-width="1" stroke-linecap="butt" stroke-linejoin="miter"/><path d="M498.51262,388.07562l36.1273,-2.24778l60.70575,98.94904l-99.17111,-60.56311z" id="Path-391147-1" fill="#000d4a" stroke="currentColor" stroke-width="1" stroke-linecap="butt" stroke-linejoin="miter"/><path d="M457.06177,388.62591l-35.76061,-2.15612l-61.07269,98.3071l97.47459,-59.99009z" id="Path-391968-1" fill="#000d4a" stroke="currentColor" stroke-width="1" stroke-linecap="butt" stroke-linejoin="miter"/></g></svg>